<?xml version="1.0" standalone="no"?>
<!DOCTYPE svg PUBLIC "-//W3C//DTD SVG 20010904//EN"
 "http://www.w3.org/TR/2001/REC-SVG-20010904/DTD/svg10.dtd">
<svg version="1.0" xmlns="http://www.w3.org/2000/svg"
 width="364.000000pt" height="364.000000pt" viewBox="0 0 364.000000 364.000000"
 preserveAspectRatio="xMidYMid meet">
<metadata>
Created by potrace 1.11, written by Peter Selinger 2001-2013
</metadata>
<g transform="translate(0.000000,364.000000) scale(0.100000,-0.100000)"
fill="#000000" stroke="none">
<path d="M1715 3576 c-105 -33 -188 -105 -231 -199 -23 -52 -28 -74 -27 -137
1 -41 3 -85 5 -97 3 -19 -36 -43 -320 -202 l-324 -179 -51 39 c-106 80 -248
98 -360 46 -112 -51 -164 -109 -208 -229 -26 -73 -24 -124 11 -209 36 -92 119
-176 202 -207 l53 -20 3 -133 c2 -74 0 -238 -3 -365 l-7 -231 -57 -24 c-102
-42 -179 -139 -212 -267 -16 -63 -3 -126 44 -215 35 -67 88 -116 167 -155 47
-23 67 -27 145 -27 78 0 98 4 150 28 33 16 72 40 86 53 l27 26 288 -163 c159
-89 307 -173 329 -185 l39 -23 -3 -78 c-6 -173 86 -303 253 -354 173 -54 356
30 434 199 22 48 26 70 25 145 l-1 87 62 34 c33 19 165 91 291 162 127 70 247
137 267 148 l37 21 23 -22 c13 -11 48 -34 78 -49 49 -26 65 -29 150 -29 82 0
103 4 151 26 102 48 162 116 199 225 25 76 25 114 -1 188 -41 115 -119 197
-221 234 l-48 17 0 180 c0 99 3 264 7 367 l6 187 26 6 c39 10 116 62 152 103
57 65 83 136 84 227 0 71 -4 88 -33 147 -101 205 -369 267 -545 126 -32 -25
-43 -29 -61 -20 -12 5 -121 66 -241 134 -121 68 -258 145 -305 171 l-85 48 0
102 c0 111 -12 147 -76 228 -79 101 -252 154 -374 115z m200 -181 c112 -65
114 -239 5 -311 -146 -97 -341 41 -291 207 37 122 172 171 286 104z m404 -539
c130 -73 274 -154 321 -180 l85 -47 0 -112 -1 -111 -69 -39 c-39 -22 -168 -95
-288 -163 -120 -68 -221 -124 -225 -124 -4 0 -20 21 -37 48 -16 26 -69 88
-117 138 l-88 91 0 270 0 269 53 22 c28 12 66 33 82 47 17 13 34 24 39 25 6 0
116 -60 245 -134z m-700 90 c28 -19 64 -37 80 -41 l29 -6 4 -272 4 -272 -76
-75 c-42 -41 -95 -103 -119 -138 -30 -45 -47 -62 -58 -58 -9 4 -91 49 -182
100 -91 51 -221 124 -289 161 l-123 67 8 32 c4 17 8 64 8 105 l0 74 95 52 c52
29 196 110 320 179 124 69 230 125 236 126 7 0 35 -15 63 -34z m-979 -256 c74
-38 116 -137 90 -215 -16 -47 -66 -104 -107 -121 -105 -44 -234 18 -263 127
-20 74 17 164 85 205 52 31 138 33 195 4z m2528 1 c46 -23 67 -46 87 -94 27
-64 13 -150 -33 -200 -59 -66 -190 -77 -258 -21 -57 46 -76 88 -72 161 3 51 9
69 34 99 16 20 45 45 64 55 46 25 129 25 178 0z m-2046 -595 c172 -95 313
-179 312 -185 -1 -6 -2 -57 -3 -113 l-1 -103 -83 -44 c-45 -25 -174 -97 -287
-161 -113 -64 -214 -122 -226 -128 -18 -9 -28 -5 -70 26 -28 21 -69 44 -92 51
l-42 14 0 364 0 363 56 25 c30 13 67 33 81 45 14 11 29 20 34 20 4 0 149 -78
321 -174z m1743 148 c19 -14 55 -34 82 -44 l48 -18 3 -365 2 -365 -35 -12
c-20 -6 -58 -27 -86 -46 -28 -19 -54 -34 -58 -34 -3 0 -143 76 -310 169 l-303
169 -2 115 -1 114 50 27 c27 14 165 91 305 171 140 79 259 145 263 145 5 0 24
-12 42 -26z m-1325 -776 c25 -39 78 -101 118 -137 l72 -68 0 -259 0 -259 -46
-19 c-26 -10 -66 -34 -90 -52 l-44 -34 -252 144 c-139 79 -285 160 -323 181
l-71 39 0 106 0 106 96 52 c52 29 181 101 285 161 105 60 195 109 200 109 6 1
30 -31 55 -70z m864 -67 c127 -70 254 -140 283 -156 49 -26 52 -29 45 -59 -9
-40 -9 -112 0 -153 l7 -32 -132 -72 c-73 -40 -219 -121 -326 -181 -106 -59
-195 -108 -198 -108 -3 0 -23 15 -45 34 -22 19 -62 43 -89 52 l-49 18 0 258 0
258 38 32 c69 61 133 133 169 191 25 40 41 56 51 52 9 -3 119 -63 246 -134z
m-1786 -116 c49 -21 81 -52 103 -100 24 -51 24 -99 0 -150 -83 -183 -361 -126
-361 74 0 138 132 228 258 176z m2526 3 c132 -40 174 -210 75 -309 -97 -97
-253 -69 -310 56 -45 98 4 214 108 250 48 18 75 18 127 3z m-1256 -713 c20 -9
48 -26 61 -38 29 -27 61 -93 61 -127 0 -87 -61 -168 -145 -189 -140 -35 -270
88 -234 222 30 116 149 177 257 132z"/>
</g>
</svg>
