<?xml version="1.0" encoding="UTF-8" standalone="no"?>
<svg
   xmlns="http://www.w3.org/2000/svg"
   version="1.1"
   viewBox="0 0 100 100"
   height="100mm"
   width="100mm">
   <circle r="20" cx="0" cy="0" style="fill:green"/>
  <g
     style="display:inline"
     id="layer4">
    
    <path
       id="path8818"
       style="fill:red"
       d="m 49.926395,6.2511894 c 2.90193,0 5.22707,2.26201 5.22707,5.1350896 0,2.87305 -2.32514,5.13405 -5.22707,5.13405 -2.90192,0 -5.22501,-2.261 -5.22501,-5.13405 0,-2.8730796 2.32309,-5.1350896 5.22501,-5.1350896 z"
    />
    <path
       id="path8814"
       d="m 15.519705,25.641739 c 2.90192,0 5.22656,2.26151 5.22656,5.13457 0,2.87309 -2.32464,5.13509 -5.22656,5.13509 -2.90192,0 -5.225,-2.262 -5.225,-5.13509 0,-2.87306 2.32308,-5.13457 5.225,-5.13457 z"
       style="color:#000000;font-style:normal;font-variant:normal;font-weight:normal;font-stretch:normal;font-size:medium;line-height:normal;font-family:sans-serif;font-variant-ligatures:normal;font-variant-position:normal;font-variant-caps:normal;font-variant-numeric:normal;font-variant-alternates:normal;font-feature-settings:normal;text-indent:0;text-align:start;text-decoration:none;text-decoration-line:none;text-decoration-style:solid;text-decoration-color:#000000;letter-spacing:normal;word-spacing:normal;text-transform:none;writing-mode:lr-tb;direction:ltr;text-orientation:mixed;dominant-baseline:auto;baseline-shift:baseline;text-anchor:start;white-space:normal;shape-padding:0;clip-rule:nonzero;display:inline;overflow:visible;visibility:visible;opacity:1;isolation:auto;mix-blend-mode:normal;color-interpolation:sRGB;color-interpolation-filters:linearRGB;solid-color:#000000;solid-opacity:1;vector-effect:none;fill:#ffffff;fill-opacity:1;fill-rule:nonzero;stroke:none;stroke-width:3.65799975;stroke-linecap:butt;stroke-linejoin:miter;stroke-miterlimit:4;stroke-dasharray:none;stroke-dashoffset:0;stroke-opacity:1;color-rendering:auto;image-rendering:auto;shape-rendering:auto;text-rendering:auto;enable-background:accumulate" />
    <path
       id="path8812"
       d="m 84.355295,25.682539 c 2.90191,0 5.22501,2.26097 5.22501,5.13406 0,2.873059 -2.3231,5.137152 -5.22501,5.137152 -2.90193,0 -5.22759,-2.264093 -5.22759,-5.137152 0,-2.87309 2.32566,-5.13406 5.22759,-5.13406 z"
       style="color:#000000;font-style:normal;font-variant:normal;font-weight:normal;font-stretch:normal;font-size:medium;line-height:normal;font-family:sans-serif;font-variant-ligatures:normal;font-variant-position:normal;font-variant-caps:normal;font-variant-numeric:normal;font-variant-alternates:normal;font-feature-settings:normal;text-indent:0;text-align:start;text-decoration:none;text-decoration-line:none;text-decoration-style:solid;text-decoration-color:#000000;letter-spacing:normal;word-spacing:normal;text-transform:none;writing-mode:lr-tb;direction:ltr;text-orientation:mixed;dominant-baseline:auto;baseline-shift:baseline;text-anchor:start;white-space:normal;shape-padding:0;clip-rule:nonzero;display:inline;overflow:visible;visibility:visible;opacity:1;isolation:auto;mix-blend-mode:normal;color-interpolation:sRGB;color-interpolation-filters:linearRGB;solid-color:#000000;solid-opacity:1;vector-effect:none;fill:#ffffff;fill-opacity:1;fill-rule:nonzero;stroke:none;stroke-width:3.65799975;stroke-linecap:butt;stroke-linejoin:miter;stroke-miterlimit:4;stroke-dasharray:none;stroke-dashoffset:0;stroke-opacity:1;color-rendering:auto;image-rendering:auto;shape-rendering:auto;text-rendering:auto;enable-background:accumulate" />
    <path
       id="path8806"
       d="m 15.561045,64.17218 c 2.90192,0 5.22708,2.264079 5.22708,5.13716 0,2.873071 -2.32516,5.134049 -5.22708,5.134049 -2.90192,0 -5.225,-2.260978 -5.225,-5.134049 0,-2.873081 2.32308,-5.13716 5.225,-5.13716 z"
       style="color:#000000;font-style:normal;font-variant:normal;font-weight:normal;font-stretch:normal;font-size:medium;line-height:normal;font-family:sans-serif;font-variant-ligatures:normal;font-variant-position:normal;font-variant-caps:normal;font-variant-numeric:normal;font-variant-alternates:normal;font-feature-settings:normal;text-indent:0;text-align:start;text-decoration:none;text-decoration-line:none;text-decoration-style:solid;text-decoration-color:#000000;letter-spacing:normal;word-spacing:normal;text-transform:none;writing-mode:lr-tb;direction:ltr;text-orientation:mixed;dominant-baseline:auto;baseline-shift:baseline;text-anchor:start;white-space:normal;shape-padding:0;clip-rule:nonzero;display:inline;overflow:visible;visibility:visible;opacity:1;isolation:auto;mix-blend-mode:normal;color-interpolation:sRGB;color-interpolation-filters:linearRGB;solid-color:#000000;solid-opacity:1;vector-effect:none;fill:#ffffff;fill-opacity:1;fill-rule:nonzero;stroke:none;stroke-width:3.65799975;stroke-linecap:butt;stroke-linejoin:miter;stroke-miterlimit:4;stroke-dasharray:none;stroke-dashoffset:0;stroke-opacity:1;color-rendering:auto;image-rendering:auto;shape-rendering:auto;text-rendering:auto;enable-background:accumulate" />
    <path
       id="path8804"
       d="m 84.479835,64.214579 c 2.90191,0 5.22707,2.26201 5.22707,5.135092 0,2.87306 -2.32516,5.134049 -5.22707,5.134049 -2.90193,0 -5.22448,-2.260989 -5.22448,-5.134049 0,-2.873082 2.32255,-5.135092 5.22448,-5.135092 z"
       style="color:#000000;font-style:normal;font-variant:normal;font-weight:normal;font-stretch:normal;font-size:medium;line-height:normal;font-family:sans-serif;font-variant-ligatures:normal;font-variant-position:normal;font-variant-caps:normal;font-variant-numeric:normal;font-variant-alternates:normal;font-feature-settings:normal;text-indent:0;text-align:start;text-decoration:none;text-decoration-line:none;text-decoration-style:solid;text-decoration-color:#000000;letter-spacing:normal;word-spacing:normal;text-transform:none;writing-mode:lr-tb;direction:ltr;text-orientation:mixed;dominant-baseline:auto;baseline-shift:baseline;text-anchor:start;white-space:normal;shape-padding:0;clip-rule:nonzero;display:inline;overflow:visible;visibility:visible;opacity:1;isolation:auto;mix-blend-mode:normal;color-interpolation:sRGB;color-interpolation-filters:linearRGB;solid-color:#000000;solid-opacity:1;vector-effect:none;fill:#ffffff;fill-opacity:1;fill-rule:nonzero;stroke:none;stroke-width:3.65799975;stroke-linecap:butt;stroke-linejoin:miter;stroke-miterlimit:4;stroke-dasharray:none;stroke-dashoffset:0;stroke-opacity:1;color-rendering:auto;image-rendering:auto;shape-rendering:auto;text-rendering:auto;enable-background:accumulate" />
    <path
       id="path8802"
       d="m 52.351565,67.301729 c -0.0617,0.158142 -0.0134,0.0761 5.3e-4,0.0501 z"
       style="color:#000000;font-style:normal;font-variant:normal;font-weight:normal;font-stretch:normal;font-size:medium;line-height:normal;font-family:sans-serif;font-variant-ligatures:normal;font-variant-position:normal;font-variant-caps:normal;font-variant-numeric:normal;font-variant-alternates:normal;font-feature-settings:normal;text-indent:0;text-align:start;text-decoration:none;text-decoration-line:none;text-decoration-style:solid;text-decoration-color:#000000;letter-spacing:normal;word-spacing:normal;text-transform:none;writing-mode:lr-tb;direction:ltr;text-orientation:mixed;dominant-baseline:auto;baseline-shift:baseline;text-anchor:start;white-space:normal;shape-padding:0;clip-rule:nonzero;display:inline;overflow:visible;visibility:visible;opacity:1;isolation:auto;mix-blend-mode:normal;color-interpolation:sRGB;color-interpolation-filters:linearRGB;solid-color:#000000;solid-opacity:1;vector-effect:none;fill:#ffffff;fill-opacity:1;fill-rule:nonzero;stroke:none;stroke-width:3.65799975;stroke-linecap:butt;stroke-linejoin:miter;stroke-miterlimit:4;stroke-dasharray:none;stroke-dashoffset:0;stroke-opacity:1;color-rendering:auto;image-rendering:auto;shape-rendering:auto;text-rendering:auto;enable-background:accumulate" />
    <path
       id="path8352-9"
       d="m 50.041115,83.47955 c 2.90191,0 5.22759,2.2615 5.22759,5.134571 0,2.873078 -2.32568,5.13457 -5.22759,5.13457 -2.90193,0 -5.22501,-2.261492 -5.22501,-5.13457 0,-0.82903 0.19819,-1.604312 0.54313,-2.29185 l 0.40462,-0.67437 c 0.94227,-1.317681 2.49983,-2.168351 4.27726,-2.168351 z"
       style="color:#000000;font-style:normal;font-variant:normal;font-weight:normal;font-stretch:normal;font-size:medium;line-height:normal;font-family:sans-serif;font-variant-ligatures:normal;font-variant-position:normal;font-variant-caps:normal;font-variant-numeric:normal;font-variant-alternates:normal;font-feature-settings:normal;text-indent:0;text-align:start;text-decoration:none;text-decoration-line:none;text-decoration-style:solid;text-decoration-color:#000000;letter-spacing:normal;word-spacing:normal;text-transform:none;writing-mode:lr-tb;direction:ltr;text-orientation:mixed;dominant-baseline:auto;baseline-shift:baseline;text-anchor:start;white-space:normal;shape-padding:0;clip-rule:nonzero;display:inline;overflow:visible;visibility:visible;opacity:1;isolation:auto;mix-blend-mode:normal;color-interpolation:sRGB;color-interpolation-filters:linearRGB;solid-color:#000000;solid-opacity:1;vector-effect:none;fill:#ffffff;fill-opacity:1;fill-rule:nonzero;stroke:none;stroke-width:3.65799975;stroke-linecap:butt;stroke-linejoin:miter;stroke-miterlimit:4;stroke-dasharray:none;stroke-dashoffset:0;stroke-opacity:1;color-rendering:auto;image-rendering:auto;shape-rendering:auto;text-rendering:auto;enable-background:accumulate" />
  </g>
  <g
     style="display:inline"
     id="layer3">
    <path
       id="path8825-2"
       d="m 50.012779,38.414213 c -2.94638,2.346923 -7.020908,7.319606 -7.02801,12.681811 -0.007,4.98141 6.605283,11.941907 6.605283,11.941907 0,0 0.503877,-0.874643 0.532797,-0.903201 V 38.519118 c -0.0268,-0.02509 -0.11007,-0.104905 -0.11007,-0.104905 z"
       style="display:inline;fill:#097b0d;fill-opacity:1;fill-rule:evenodd;stroke:none;stroke-width:0.26458332px;stroke-linecap:butt;stroke-linejoin:miter;stroke-opacity:1" />
    <path
       id="path8825-2-0"
       d="m 50.232919,38.414214 c 1.73104,2.76965 6.59818,6.526992 6.60529,11.889197 0.007,4.981411 -6.60529,11.941908 -6.60529,11.941908 0,0 -0.0811,-0.08203 -0.11007,-0.110588 V 38.519118 c 0.0268,-0.02508 0.11007,-0.104904 0.11007,-0.104904 z"
       style="display:inline;fill:#498109;fill-opacity:1;fill-rule:evenodd;stroke:none;stroke-width:0.26458332px;stroke-linecap:butt;stroke-linejoin:miter;stroke-opacity:1" />
  </g>
  <g
     transform="translate(0,-197)"
     style="display:none;opacity:1"
     id="layer1">
    <g
       style="stroke-width:0.81279409"
       transform="matrix(1.2494787,0,0,1.2114629,-93.221765,56.010027)"
       id="g8430">
      <path
         style="fill:none;fill-rule:evenodd;stroke:#000000;stroke-width:2.9732008;stroke-linecap:butt;stroke-linejoin:miter;stroke-miterlimit:4;stroke-dasharray:none;stroke-opacity:1"
         d="m 91.33936,139.24416 17.50615,-10.02261"
         id="path8411" />
      <path
         style="display:inline;fill:none;fill-rule:evenodd;stroke:#000000;stroke-width:2.9732008;stroke-linecap:butt;stroke-linejoin:miter;stroke-miterlimit:4;stroke-dasharray:none;stroke-opacity:1"
         d="m 120.40492,186.08315 17.50615,-10.02261"
         id="path8411-6" />
    </g>
  </g>
  <g
     transform="translate(0,-197)"
     style="display:inline;opacity:0.98600003"
     id="layer2">
    <path
       id="path8352"
       d="m 49.926389,198.81959 c -5.394975,0 -9.795702,4.32051 -9.795702,9.56654 0,1.08665 0.191138,2.13249 0.538503,3.10954 l -17.85903,9.91274 c -1.796406,-1.95772 -4.400391,-3.19846 -7.29044,-3.19846 -5.39497,0 -9.7957,4.32052 -9.7957,9.56652 0,4.51762 3.264326,8.34619 7.615866,9.32302 l -0.07555,19.91372 c -4.293007,1.01862 -7.498994,4.81899 -7.498994,9.29607 0,5.24606 4.400729,9.56341 9.795701,9.56341 2.800696,0 5.332409,-1.16508 7.121271,-3.01814 l 17.946194,10.13058 c -0.247389,0.83709 -0.38289,1.71874 -0.38289,2.62938 0,5.24603 4.400727,9.56589 9.795703,9.56589 5.394973,0 9.798283,-4.31986 9.798283,-9.56589 0,-0.88225 -0.127446,-1.73738 -0.360292,-2.55111 l 18.034653,-10.00978 c 1.778125,1.76239 4.245365,2.86163 6.966305,2.86163 5.39497,0 9.79571,-4.31988 9.79571,-9.5659 0,-4.51379 -3.2595,-8.3397 -7.60554,-9.32049 l 0.0736,-19.93691 c 4.24688,-1.05065 7.40731,-4.83024 7.40731,-9.2754 0,-5.24604 -4.40073,-9.5659 -9.7957,-9.5659 -2.80809,0 -5.34584,1.17219 -7.135478,3.03442 L 59.297227,211.16949 c 0.277509,-0.88231 0.427446,-1.81699 0.427446,-2.78335 0,-5.24603 -4.40331,-9.56654 -9.798284,-9.56655 z m 0,4.43175 c 2.901926,0 5.227473,2.26171 5.227473,5.13479 0,2.87307 -2.325547,5.13415 -5.227473,5.13415 -2.901926,0 -5.224892,-2.26108 -5.224892,-5.13415 0,-2.87308 2.322966,-5.13479 5.224892,-5.13479 z m 7.061223,11.74264 17.967504,10.14124 c -0.257448,0.85243 -0.397744,1.7519 -0.397744,2.68133 0,1.06004 0.182536,2.08111 0.513967,3.03754 l -16.289367,9.19467 c -1.87271,-3.4359 -4.647633,-5.98496 -6.403911,-7.37288 l -0.129139,-14.99932 c 1.83478,-0.44048 3.469078,-1.38986 4.73869,-2.68258 z m -13.868691,0.24791 c 1.248084,1.18293 2.814293,2.04684 4.55919,2.45157 l 0.2021,14.92295 c -1.752362,1.37357 -4.585432,3.94602 -6.488497,7.443 l -16.598651,-9.21533 c 0.338125,-0.96509 0.524297,-1.99641 0.524297,-3.06761 0,-0.85123 -0.117813,-1.67735 -0.33511,-2.46534 z m -27.599201,7.3998 c 2.901924,0 5.22683,2.26172 5.22683,5.13478 0,2.87309 -2.324906,5.13479 -5.22683,5.13479 -2.901922,0 -5.224891,-2.2617 -5.224891,-5.13479 0,-2.87306 2.322969,-5.13478 5.224891,-5.13478 z m 68.83594,0.0407 c 2.90191,0 5.22489,2.26107 5.22489,5.13416 0,2.87306 -2.32298,5.13729 -5.22489,5.13729 -2.90193,0 -5.22748,-2.26423 -5.22748,-5.13729 0,-2.87309 2.32555,-5.13416 5.22748,-5.13416 z m -61.994897,11.91981 17.418025,9.66795 c -0.286261,1.25888 -0.421699,2.59031 -0.33834,3.99226 0.04021,0.67628 0.127767,1.32949 0.249237,1.96327 l -16.966693,9.57904 c -1.294271,-1.35731 -2.984494,-2.35031 -4.88784,-2.79715 l 0.0762,-19.9563 c 1.702911,-0.42174 3.229658,-1.2828 4.449424,-2.44907 z m 55.126731,0.0156 c 1.273436,1.22656 2.886806,2.11679 4.685746,2.52107 l -0.0736,19.93314 c -1.7769,0.43796 -3.36294,1.35374 -4.608262,2.59618 l -17.001555,-9.43821 c 0.121924,-0.63515 0.209575,-1.2898 0.249881,-1.96765 0.08347,-1.40381 -0.05257,-2.73691 -0.339634,-3.99727 z m -27.397746,2.16486 c 2.462434,2.24139 6.338081,6.5435 6.059762,11.22428 -0.187402,3.15174 -1.889689,5.83723 -3.682346,7.82551 v -7.04922 a 2.2992706,2.2293145 0 0 0 -2.335445,-2.26001 2.2992706,2.2293145 0 0 0 -2.265069,2.26001 v 7.21449 c -1.847839,-2.00396 -3.643267,-4.7491 -3.836018,-7.99078 -0.278309,-4.68055 3.596666,-8.98282 6.059116,-11.22428 z m 8.915631,17.72947 16.138276,8.95676 c -0.297327,0.91075 -0.45973,1.87847 -0.45973,2.88042 0,1.01165 0.165888,1.98825 0.468768,2.9067 l -17.879043,9.92592 c -1.284718,-1.37531 -2.97263,-2.38634 -4.876866,-2.85036 l -0.051,-13.72532 a 2.3000652,2.230085 0 0 0 0.11429,-0.56155 c 1.905356,-1.42794 4.724539,-3.95969 6.545319,-7.53253 z m -17.828682,0.004 c 1.835872,3.60031 4.691007,6.15033 6.596329,7.57132 l 0.05296,14.21239 c -1.932505,0.44129 -3.648445,1.44432 -4.956932,2.82156 L 24.955136,269.00928 c 0.261214,-0.85805 0.404198,-1.76365 0.404198,-2.70013 0,-0.9165 -0.13746,-1.80374 -0.388058,-2.64563 z m -25.615652,6.65605 c 2.901923,0 5.227474,2.26423 5.227474,5.1373 0,2.87307 -2.325551,5.13415 -5.227474,5.13415 -2.901921,0 -5.224892,-2.26108 -5.224892,-5.13415 0,-2.87307 2.322971,-5.1373 5.224892,-5.1373 z m 68.919235,0.0426 c 2.90191,0 5.22682,2.26171 5.22682,5.13479 0,2.87306 -2.32491,5.13416 -5.22682,5.13416 -2.90193,0 -5.2249,-2.2611 -5.2249,-5.13416 0,-2.87308 2.32297,-5.13479 5.2249,-5.13479 z m -34.438957,19.26473 c 2.901912,0 5.227474,2.26172 5.227474,5.13478 0,2.87308 -2.325562,5.13417 -5.227474,5.13417 -2.901927,0 -5.224893,-2.26109 -5.224893,-5.13417 0,-0.82903 0.198083,-1.60439 0.543023,-2.29193 l 0.404846,-0.67425 c 0.942276,-1.31768 2.499592,-2.1686 4.277024,-2.1686 z"
       style="color:#000000;font-style:normal;font-variant:normal;font-weight:normal;font-stretch:normal;font-size:medium;line-height:normal;font-family:sans-serif;font-variant-ligatures:normal;font-variant-position:normal;font-variant-caps:normal;font-variant-numeric:normal;font-variant-alternates:normal;font-feature-settings:normal;text-indent:0;text-align:start;text-decoration:none;text-decoration-line:none;text-decoration-style:solid;text-decoration-color:#000000;letter-spacing:normal;word-spacing:normal;text-transform:none;writing-mode:lr-tb;direction:ltr;text-orientation:mixed;dominant-baseline:auto;baseline-shift:baseline;text-anchor:start;white-space:normal;shape-padding:0;clip-rule:nonzero;display:inline;overflow:visible;visibility:visible;opacity:1;isolation:auto;mix-blend-mode:normal;color-interpolation:sRGB;color-interpolation-filters:linearRGB;solid-color:#000000;solid-opacity:1;vector-effect:none;fill:#000000;fill-opacity:1;fill-rule:nonzero;stroke:none;stroke-width:3.65799975;stroke-linecap:butt;stroke-linejoin:miter;stroke-miterlimit:4;stroke-dasharray:none;stroke-dashoffset:0;stroke-opacity:1;color-rendering:auto;image-rendering:auto;shape-rendering:auto;text-rendering:auto;enable-background:accumulate" />
  </g>
</svg>
