<svg width="22" height="21" viewBox="0 0 22 21" fill="none" xmlns="http://www.w3.org/2000/svg">
<path d="M16.8056 3.31985V8.31243L16.8094 8.31634L20.7816 9.7304C21.5111 10.0312 22 10.7382 22 11.5312V16.4609C22 17.2187 21.5531 17.9023 20.8694 18.1913L16.8972 19.8749C16.4465 20.0624 15.9424 20.0624 15.4917 19.8749L11 17.9726L6.50833 19.8749C6.05764 20.0624 5.55347 20.0624 5.10278 19.8749L1.13247 18.1913C0.446875 17.9023 0 17.2187 0 16.4609V11.5312C0 10.7382 0.487361 10.0312 1.21726 9.7304L5.19062 8.31634L5.19444 8.31243V3.31985C5.19444 2.52728 5.68333 1.82024 6.41285 1.55384L10.3851 0.104189C10.7823 -0.0412402 11.2177 -0.0412402 11.6149 0.104189L15.5872 1.55384C16.3167 1.82024 16.8056 2.52728 16.8056 3.31985ZM11.2062 1.28157C11.0726 1.23313 10.9274 1.23313 10.7937 1.28157L6.82153 2.73118C6.73368 2.7636 6.65347 2.81634 6.59236 2.88235L10.9656 4.60931L15.4076 2.88235C15.3465 2.81634 15.2663 2.7636 15.1785 2.73118L11.2062 1.28157ZM6.42049 8.31634L10.3545 9.76165V5.71087L6.38229 4.15228V8.31243L6.42049 8.31634ZM11.6111 9.76165L15.5795 8.31634L15.5833 8.31243V4.15228L11.6111 5.71087V9.76165ZM6.07674 13.6171V18.6874L10.3545 16.8788V12.039L6.07674 13.6171ZM1.59958 17.039L4.85451 18.4296V13.5976L1.18785 12.0663V16.4609C1.18785 16.7109 1.37118 16.9413 1.59958 17.039ZM15.8889 13.6171L11.6111 12.039V16.8788L15.8889 18.6874V13.6171ZM17.1111 18.4296L20.3997 17.039C20.6288 16.9413 20.7778 16.7109 20.7778 16.4609V12.0663L17.1111 13.5976V18.4296ZM6.01181 9.49212C5.87812 9.44524 5.73299 9.44524 5.59931 9.49212L1.70156 10.914L5.51528 12.5077L9.87326 10.9023L6.01181 9.49212ZM12.1267 10.9023L16.4847 12.5077L20.2965 10.914L16.4007 9.49212C16.267 9.44524 16.1219 9.44524 15.9882 9.49212L12.1267 10.9023Z" fill="#FBFBFB"/>
</svg>
