<svg width="20" height="20" viewBox="0 0 20 20" fill="none" xmlns="http://www.w3.org/2000/svg">
<path d="M1.66602 15C1.66602 14.2234 1.66602 13.8352 1.79288 13.5288C1.96204 13.1205 2.2865 12.796 2.69487 12.6268C3.00117 12.5 3.38945 12.5 4.16602 12.5H15.8327C16.6093 12.5 16.9975 12.5 17.3038 12.6268C17.7122 12.796 18.0367 13.1205 18.2058 13.5288C18.3327 13.8352 18.3327 14.2234 18.3327 15C18.3327 15.7766 18.3327 16.1648 18.2058 16.4712C18.0367 16.8795 17.7122 17.204 17.3038 17.3732C16.9975 17.5 16.6093 17.5 15.8327 17.5H4.16602C3.38945 17.5 3.00117 17.5 2.69487 17.3732C2.2865 17.204 1.96204 16.8795 1.79288 16.4712C1.66602 16.1648 1.66602 15.7766 1.66602 15Z" stroke="white" stroke-width="1.5"/>
<path d="M1.66602 10C1.66602 9.22342 1.66602 8.83517 1.79288 8.52883C1.96204 8.12048 2.2865 7.79602 2.69487 7.62687C3.00117 7.5 3.38945 7.5 4.16602 7.5H15.8327C16.6093 7.5 16.9975 7.5 17.3038 7.62687C17.7122 7.79602 18.0367 8.12048 18.2058 8.52883C18.3327 8.83517 18.3327 9.22342 18.3327 10C18.3327 10.7766 18.3327 11.1648 18.2058 11.4712C18.0367 11.8795 17.7122 12.204 17.3038 12.3732C16.9975 12.5 16.6093 12.5 15.8327 12.5H4.16602C3.38945 12.5 3.00117 12.5 2.69487 12.3732C2.2865 12.204 1.96204 11.8795 1.79288 11.4712C1.66602 11.1648 1.66602 10.7766 1.66602 10Z" stroke="white" stroke-width="1.5"/>
<path d="M1.66602 5C1.66602 4.22343 1.66602 3.83515 1.79288 3.52886C1.96204 3.12048 2.2865 2.79603 2.69487 2.62687C3.00117 2.5 3.38945 2.5 4.16602 2.5H15.8327C16.6093 2.5 16.9975 2.5 17.3038 2.62687C17.7122 2.79603 18.0367 3.12048 18.2058 3.52886C18.3327 3.83515 18.3327 4.22343 18.3327 5C18.3327 5.77657 18.3327 6.16485 18.2058 6.47114C18.0367 6.87952 17.7122 7.20398 17.3038 7.37313C16.9975 7.5 16.6093 7.5 15.8327 7.5H4.16602C3.38945 7.5 3.00117 7.5 2.69487 7.37313C2.2865 7.20398 1.96204 6.87952 1.79288 6.47114C1.66602 6.16485 1.66602 5.77657 1.66602 5Z" stroke="white" stroke-width="1.5"/>
<path d="M4.16732 10.8334C4.62756 10.8334 5.00065 10.4603 5.00065 10.0001C5.00065 9.53984 4.62756 9.16675 4.16732 9.16675C3.70708 9.16675 3.33398 9.53984 3.33398 10.0001C3.33398 10.4603 3.70708 10.8334 4.16732 10.8334Z" fill="white"/>
<path d="M4.16732 5.83341C4.62756 5.83341 5.00065 5.46032 5.00065 5.00008C5.00065 4.53984 4.62756 4.16675 4.16732 4.16675C3.70708 4.16675 3.33398 4.53984 3.33398 5.00008C3.33398 5.46032 3.70708 5.83341 4.16732 5.83341Z" fill="white"/>
<path d="M4.16732 15.8334C4.62756 15.8334 5.00065 15.4603 5.00065 15.0001C5.00065 14.5398 4.62756 14.1667 4.16732 14.1667C3.70708 14.1667 3.33398 14.5398 3.33398 15.0001C3.33398 15.4603 3.70708 15.8334 4.16732 15.8334Z" fill="white"/>
</svg>
