<svg width="28" height="27" viewBox="0 0 28 27" fill="none" xmlns="http://www.w3.org/2000/svg">
<path d="M23.2267 8.41675H23.6614L23.4428 8.04102C22.1332 5.79012 20.0458 4.04344 17.5344 3.18356L16.9294 2.97642L17.2335 3.53896C18.0231 4.99976 18.6293 6.58048 19.0512 8.22875L19.0994 8.41675H19.2934H23.2267ZM14.2057 2.74453L14.0001 2.44727L13.7945 2.74453C12.6733 4.36544 11.7951 6.16238 11.214 8.09476L11.1172 8.41675H11.4534H16.5467H16.883L16.7862 8.09476C16.2051 6.16238 15.3268 4.36544 14.2057 2.74453ZM3.43755 16.2274L3.48489 16.4167H3.68008H8.18675H8.46888L8.43493 16.1367C8.32881 15.2612 8.25008 14.3924 8.25008 13.5001C8.25008 12.6078 8.32881 11.739 8.43493 10.8635L8.46888 10.5834H8.18675H3.68008H3.48489L3.43755 10.7728C3.22024 11.642 3.08341 12.5559 3.08341 13.5001C3.08341 14.4442 3.22024 15.3582 3.43755 16.2274ZM4.77341 18.5834H4.34004L4.557 18.9586C5.86701 21.2238 7.95493 22.9569 10.4658 23.8166L11.0708 24.0237L10.7667 23.4612C9.97706 22.0004 9.37089 20.4197 8.94894 18.7714L8.90081 18.5834H8.70675H4.77341ZM8.70675 8.41675H8.90081L8.94894 8.22875C9.37089 6.58048 9.97706 4.99976 10.7667 3.53896L11.0708 2.97642L10.4658 3.18356C7.95493 4.04325 5.86701 5.77636 4.557 8.04159L4.34004 8.41675H4.77341H8.70675ZM13.7945 24.2556L14.0001 24.5529L14.2057 24.2556C15.3268 22.6347 16.2051 20.8378 16.7862 18.9054L16.883 18.5834H16.5467H11.4534H11.1172L11.214 18.9054C11.7951 20.8378 12.6733 22.6347 13.7945 24.2556ZM17.1201 16.4167H17.3383L17.3678 16.2005C17.4884 15.3163 17.5834 14.4234 17.5834 13.5001C17.5834 12.5769 17.4884 11.6708 17.3677 10.7991L17.3379 10.5834H17.1201H10.8801H10.6623L10.6324 10.7991C10.5118 11.6708 10.4167 12.5769 10.4167 13.5001C10.4167 14.4234 10.5118 15.3163 10.6324 16.2005L10.6619 16.4167H10.8801H17.1201ZM17.2335 23.4612L16.9294 24.0237L17.5344 23.8166C20.0458 22.9567 22.1332 21.21 23.4428 18.9591L23.6614 18.5834H23.2267H19.2934H19.0994L19.0512 18.7714C18.6293 20.4197 18.0231 22.0004 17.2335 23.4612ZM19.5652 16.1367L19.5313 16.4167H19.8134H24.3201H24.5153L24.5626 16.2274C24.7799 15.3582 24.9167 14.4442 24.9167 13.5001C24.9167 12.5559 24.7799 11.642 24.5626 10.7728L24.5153 10.5834H24.3201H19.8134H19.5313L19.5652 10.8635C19.6714 11.739 19.7501 12.6078 19.7501 13.5001C19.7501 14.3924 19.6714 15.2612 19.5652 16.1367ZM0.916748 13.5001C0.916748 6.27783 6.76514 0.416748 13.9867 0.416748C21.2222 0.416748 27.0834 6.27832 27.0834 13.5001C27.0834 20.7218 21.2222 26.5834 13.9867 26.5834C6.76514 26.5834 0.916748 20.7223 0.916748 13.5001Z" fill="#08FFD0" stroke="#121212" stroke-width="0.5"/>
</svg>
