<svg xmlns="http://www.w3.org/2000/svg" width="256" height="256" viewBox="0 0 67.733331 67.733331">
    <g>
        <path id="fill" d="M 58.540695,29.519605 A 24.651398,23.407667 0 0 1 33.889297,52.927275 24.651398,23.407667 0 0 1 9.2379,29.519605 24.651398,23.407667 0 0 1 33.889297,6.1119353 24.651398,23.407667 0 0 1 58.540695,29.519605 Z m 1.436573,0.23431 A 26.087971,24.666168 0 0 1 33.889297,54.420085 26.087971,24.666168 0 0 1 7.801327,29.753915 26.087971,24.666168 0 0 1 33.889297,5.0877553 26.087971,24.666168 0 0 1 59.977268,29.753915 Z m 1.039892,0.75522 A 27.127863,25.617769 0 0 1 33.889297,56.126905 27.127863,25.617769 0 0 1 6.761434,30.509135 27.127863,25.617769 0 0 1 33.889297,4.8913653 27.127863,25.617769 0 0 1 61.01716,30.509135 Z M 30.214916,62.639705 C 17.693361,61.071475 8.007432,52.020735 6.835796,40.793735 6.736126,39.838695 6.697884,38.212295 6.700362,35.034555 l 0.0034,-4.42829 0.168975,1.05894 c 1.629479,10.21164 9.171854,18.64751 19.263833,21.54589 5.115144,1.46906 10.905948,1.4048 15.933785,-0.17681 9.002544,-2.83193 15.909158,-10.07822 18.165284,-19.05867 0.146317,-0.58242 0.361876,-1.66542 0.47902,-2.40668 0.198761,-1.25767 0.217689,-1.31008 0.283253,-0.78407 0.10178,0.81659 -0.03561,7.84573 -0.186685,9.55082 -0.697741,7.87508 -5.482206,14.85148 -13.050234,19.02901 -4.956501,2.73598 -11.74014,4.00215 -17.546133,3.275 z" class="node-back"/>
    </g>
    <g style="display:inline"/>
    <g style="display:inline;opacity:0.5" transform="translate(0,-229.26667)">
        <g style="" transform="translate(-0.54428498,-0.23024772)">
            <path d="M 30.759247,62.869964 C 18.237692,61.301741 8.5517628,52.250993 7.3801272,41.023991 7.2804595,40.068954 7.2422154,38.442553 7.2446926,35.264821 l 0.00341,-4.42829 0.1689754,1.058938 c 1.6294795,10.211637 9.171854,18.647509 19.263833,21.545891 5.115144,1.469056 10.905948,1.404799 15.933785,-0.176817 9.002544,-2.831928 15.909158,-10.078212 18.165284,-19.058669 0.146317,-0.582417 0.361876,-1.665422 0.47902,-2.406679 0.198761,-1.257673 0.217689,-1.310073 0.283253,-0.784072 0.10178,0.8166 -0.03561,7.84573 -0.186685,9.550819 -0.697741,7.875081 -5.482206,14.851481 -13.050234,19.029012 -4.956501,2.735979 -11.74014,4.002151 -17.546133,3.274999 z" style="opacity:1;fill:#333333;" transform="translate(0,229.26667)"/>
            <ellipse cx="34.433628" cy="260.00607" rx="27.127861" ry="25.617769" style="opacity:1;fill:#606060;"/>
            <ellipse cx="34.433628" cy="259.25085" rx="26.087971" ry="24.666168" style="opacity:1;fill:#bbbbbb;"/>
            <ellipse cx="34.433628" cy="259.01654" rx="24.651398" ry="23.407667" style="display:inline;opacity:1;fill:#ececec;"/>
        </g>
        <g style="display:inline;opacity:0.3;" transform="matrix(0.45364808,0,0,0.39847607,11.458907,160.07254)">
            <path class="rsk-logo" d="m 49.926389,198.81959 c -5.394975,0 -9.795702,4.32051 -9.795702,9.56654 0,1.08665 0.191138,2.13249 0.538503,3.10954 l -17.85903,9.91274 c -1.796406,-1.95772 -4.400391,-3.19846 -7.29044,-3.19846 -5.39497,0 -9.7957,4.32052 -9.7957,9.56652 0,4.51762 3.264326,8.34619 7.615866,9.32302 l -0.07555,19.91372 c -4.293007,1.01862 -7.498994,4.81899 -7.498994,9.29607 0,5.24606 4.400729,9.56341 9.795701,9.56341 2.800696,0 5.332409,-1.16508 7.121271,-3.01814 l 17.946194,10.13058 c -0.247389,0.83709 -0.38289,1.71874 -0.38289,2.62938 0,5.24603 4.400727,9.56589 9.795703,9.56589 5.394973,0 9.798283,-4.31986 9.798283,-9.56589 0,-0.88225 -0.127446,-1.73738 -0.360292,-2.55111 l 18.034653,-10.00978 c 1.778125,1.76239 4.245365,2.86163 6.966305,2.86163 5.39497,0 9.79571,-4.31988 9.79571,-9.5659 0,-4.51379 -3.2595,-8.3397 -7.60554,-9.32049 l 0.0736,-19.93691 c 4.24688,-1.05065 7.40731,-4.83024 7.40731,-9.2754 0,-5.24604 -4.40073,-9.5659 -9.7957,-9.5659 -2.80809,0 -5.34584,1.17219 -7.135478,3.03442 L 59.297227,211.16949 c 0.277509,-0.88231 0.427446,-1.81699 0.427446,-2.78335 0,-5.24603 -4.40331,-9.56654 -9.798284,-9.56655 z m 0,4.43175 c 2.901926,0 5.227473,2.26171 5.227473,5.13479 0,2.87307 -2.325547,5.13415 -5.227473,5.13415 -2.901926,0 -5.224892,-2.26108 -5.224892,-5.13415 0,-2.87308 2.322966,-5.13479 5.224892,-5.13479 z m 7.061223,11.74264 17.967504,10.14124 c -0.257448,0.85243 -0.397744,1.7519 -0.397744,2.68133 0,1.06004 0.182536,2.08111 0.513967,3.03754 l -16.289367,9.19467 c -1.87271,-3.4359 -4.647633,-5.98496 -6.403911,-7.37288 l -0.129139,-14.99932 c 1.83478,-0.44048 3.469078,-1.38986 4.73869,-2.68258 z m -13.868691,0.24791 c 1.248084,1.18293 2.814293,2.04684 4.55919,2.45157 l 0.2021,14.92295 c -1.752362,1.37357 -4.585432,3.94602 -6.488497,7.443 l -16.598651,-9.21533 c 0.338125,-0.96509 0.524297,-1.99641 0.524297,-3.06761 0,-0.85123 -0.117813,-1.67735 -0.33511,-2.46534 z m -27.599201,7.3998 c 2.901924,0 5.22683,2.26172 5.22683,5.13478 0,2.87309 -2.324906,5.13479 -5.22683,5.13479 -2.901922,0 -5.224891,-2.2617 -5.224891,-5.13479 0,-2.87306 2.322969,-5.13478 5.224891,-5.13478 z m 68.83594,0.0407 c 2.90191,0 5.22489,2.26107 5.22489,5.13416 0,2.87306 -2.32298,5.13729 -5.22489,5.13729 -2.90193,0 -5.22748,-2.26423 -5.22748,-5.13729 0,-2.87309 2.32555,-5.13416 5.22748,-5.13416 z m -61.994897,11.91981 17.418025,9.66795 c -0.286261,1.25888 -0.421699,2.59031 -0.33834,3.99226 0.04021,0.67628 0.127767,1.32949 0.249237,1.96327 l -16.966693,9.57904 c -1.294271,-1.35731 -2.984494,-2.35031 -4.88784,-2.79715 l 0.0762,-19.9563 c 1.702911,-0.42174 3.229658,-1.2828 4.449424,-2.44907 z m 55.126731,0.0156 c 1.273436,1.22656 2.886806,2.11679 4.685746,2.52107 l -0.0736,19.93314 c -1.7769,0.43796 -3.36294,1.35374 -4.608262,2.59618 l -17.001555,-9.43821 c 0.121924,-0.63515 0.209575,-1.2898 0.249881,-1.96765 0.08347,-1.40381 -0.05257,-2.73691 -0.339634,-3.99727 z m -27.397746,2.16486 c 2.462434,2.24139 6.338081,6.5435 6.059762,11.22428 -0.187402,3.15174 -1.889689,5.83723 -3.682346,7.82551 v -7.04922 a 2.2992706,2.2293145 0 0 0 -2.335445,-2.26001 2.2992706,2.2293145 0 0 0 -2.265069,2.26001 v 7.21449 c -1.847839,-2.00396 -3.643267,-4.7491 -3.836018,-7.99078 -0.278309,-4.68055 3.596666,-8.98282 6.059116,-11.22428 z m 8.915631,17.72947 16.138276,8.95676 c -0.297327,0.91075 -0.45973,1.87847 -0.45973,2.88042 0,1.01165 0.165888,1.98825 0.468768,2.9067 l -17.879043,9.92592 c -1.284718,-1.37531 -2.97263,-2.38634 -4.876866,-2.85036 l -0.051,-13.72532 a 2.3000652,2.230085 0 0 0 0.11429,-0.56155 c 1.905356,-1.42794 4.724539,-3.95969 6.545319,-7.53253 z m -17.828682,0.004 c 1.835872,3.60031 4.691007,6.15033 6.596329,7.57132 l 0.05296,14.21239 c -1.932505,0.44129 -3.648445,1.44432 -4.956932,2.82156 L 24.955136,269.00928 c 0.261214,-0.85805 0.404198,-1.76365 0.404198,-2.70013 0,-0.9165 -0.13746,-1.80374 -0.388058,-2.64563 z m -25.615652,6.65605 c 2.901923,0 5.227474,2.26423 5.227474,5.1373 0,2.87307 -2.325551,5.13415 -5.227474,5.13415 -2.901921,0 -5.224892,-2.26108 -5.224892,-5.13415 0,-2.87307 2.322971,-5.1373 5.224892,-5.1373 z m 68.919235,0.0426 c 2.90191,0 5.22682,2.26171 5.22682,5.13479 0,2.87306 -2.32491,5.13416 -5.22682,5.13416 -2.90193,0 -5.2249,-2.2611 -5.2249,-5.13416 0,-2.87308 2.32297,-5.13479 5.2249,-5.13479 z m -34.438957,19.26473 c 2.901912,0 5.227474,2.26172 5.227474,5.13478 0,2.87308 -2.325562,5.13417 -5.227474,5.13417 -2.901927,0 -5.224893,-2.26109 -5.224893,-5.13417 0,-0.82903 0.198083,-1.60439 0.543023,-2.29193 l 0.404846,-0.67425 c 0.942276,-1.31768 2.499592,-2.1686 4.277024,-2.1686 z" style="fill:#000000;"/>
        </g>
    </g>
</svg>
