<svg
   xmlns="http://www.w3.org/2000/svg"
   width="256"
   height="256"
   viewBox="0 0 67.733331 67.733331">
  <g id="layer2">
    <path
       d="m 185.58815,-34.307705 v 6.047176 h 0.0475 c 0.43632,6.460872 12.40628,11.599551 27.02884,11.603426 14.61794,-0.0067 26.58077,-5.14459 27.01695,-11.603426 0.2125,-1.787145 0.0832,-4.100217 0.0832,-6.047176 z"
       id="path8249-6"
       />
    <path
       d="M 30.31953,47.838143 C 17.844172,47.068475 8.1939774,42.626452 7.0266644,37.116344 c -0.0993,-0.468723 -0.137403,-1.266946 -0.134935,-2.826547 l 0.0034,-2.173363 0.168352,0.519717 c 1.623468,5.011776 9.1380166,9.152023 19.1927626,10.574522 5.096272,0.720999 10.865713,0.689462 15.875,-0.08678 8.96933,-1.389884 15.850462,-4.946293 18.098265,-9.353817 0.145777,-0.285845 0.360542,-0.817374 0.477255,-1.181176 0.198025,-0.617254 0.216884,-0.642971 0.282205,-0.384815 0.101406,0.40078 -0.03548,3.850611 -0.185995,4.687453 -0.695168,3.865016 -5.461981,7.288968 -13.002087,9.339262 -4.938215,1.342793 -11.696827,1.964217 -17.481399,1.607338 z"
       id="path8558"
        />
    <path
       d="M 253.21142,8.1475656 C 251.04674,7.8783203 249.32436,7.4700603 247.74064,6.8508162 240.43287,3.9934247 235.5006,-2.339073 234.44822,-10.215198 c -0.16184,-1.211183 -0.13677,-3.918807 0.0486,-5.244417 0.55994,-4.005236 2.17683,-7.653032 4.7539,-10.725075 3.29988,-3.933665 7.99064,-6.495729 13.25204,-7.238175 1.18641,-0.167416 3.93151,-0.186184 5.19718,-0.03553 7.98771,0.950768 14.79977,6.4894 17.33986,14.098392 0.84016,2.516743 1.14502,4.646128 1.05847,7.393146 -0.0933,2.9624286 -0.69016,5.5088288 -1.90431,8.1247748 -1.26014,2.7150509 -3.44309,5.5129958 -5.76895,7.3941939 -3.03015,2.4508459 -6.6609,4.0011296 -10.57107,4.5137069 -1.00499,0.131744 -3.83929,0.1816523 -4.64247,0.081751 z"
       id="path8560"
        />
    <path
       d="M 253.21142,8.1475656 C 251.04674,7.8783203 249.32436,7.4700603 247.74064,6.8508162 240.43287,3.9934247 235.5006,-2.339073 234.44822,-10.215198 c -0.16184,-1.211183 -0.13677,-3.918807 0.0486,-5.244417 0.55994,-4.005236 2.17683,-7.653032 4.7539,-10.725075 3.29988,-3.933665 7.99064,-6.495729 13.25204,-7.238175 1.18641,-0.167416 3.93151,-0.186184 5.19718,-0.03553 7.98771,0.950768 14.79977,6.4894 17.33986,14.098392 0.84016,2.516743 1.14502,4.646128 1.05847,7.393146 -0.0933,2.9624286 -0.69016,5.5088288 -1.90431,8.1247748 -1.26014,2.7150509 -3.44309,5.5129958 -5.76895,7.3941939 -3.03015,2.4508459 -6.6609,4.0011296 -10.57107,4.5137069 -1.00499,0.131744 -3.83929,0.1816523 -4.64247,0.081751 z"
       id="path8562"
        />
  </g>
  <g
     id="layer3"
     style="display:inline" />
  <g
     id="layer1"
     transform="translate(0,-229.26667)"
     style="display:inline">
    <circle
       id="path8249-3"
       cx="257.64462"
       cy="214.05629"
       r="22.851545" />
    <ellipse
       id="path8249-6-7"
       cx="33.863758"
       cy="260.28629"
       rx="27.127861"
       ry="13.096208" />
    <ellipse
       id="path8249-6-5"
       ry="12.196548"
       rx="26.087971"
       cy="259.25443"
       cx="33.903595" />
    <circle
       id="path8249-3-3"
       cx="254.97864"
       cy="216.90849"
       r="22.851547" />
    <circle
       id="path8249-3-3-5"
       cx="255.22842"
       cy="216.58559"
       r="20.961668" />
    <ellipse
       id="path8249-6-5-1"
       ry="11.094061"
       rx="24.651398"
       cy="258.6546"
       cx="33.752064" />
  </g>
</svg>
