<svg xmlns="http://www.w3.org/2000/svg" width="256" height="256" viewBox="0 0 67.7 67.7">
    <path d="M58.4 29.4a24.7 11 0 0 1-24.6 11A24.7 11 0 0 1 9 29.5a24.7 11 0 0 1 24.8-11 24.7 11 0 0 1 24.6 11zm1.6.6a26 12.2 0 0 1-26 12.2A26 12.2 0 0 1 7.7 30a26 12.2 0 0 1 26-12.2A26 12.2 0 0 1 60 30zm1 1a27 13 0 0 1-27 13A27 13 0 0 1 6.6 31 27 13 0 0 1 34 18a27 13 0 0 1 27 13zM30.3 47.8C17.8 47 8.3 42.6 7 37v-4.9.6c1.7 5 9.2 9.2 19.3 10.6 5 .7 10.8.7 15.8 0 9-1.5 16-5 18.2-9.4l.5-1.2c.2-.6.2-.7.3-.4 0 .4 0 4-.2 4.7-.7 3.8-5.5 7.2-13 9.2-5 1.4-11.7 2-17.5 1.6z" class="node-back"/>
    <path fill="#666" d="M30.3 47.8C17.8 47 8.3 42.6 7 37v-4.9.6c1.7 5 9.2 9.2 19.3 10.6 5 .7 10.8.7 15.8 0 9-1.5 16-5 18.2-9.4l.5-1.2c.2-.6.2-.7.3-.4 0 .4 0 4-.2 4.7-.7 3.8-5.5 7.2-13 9.2-5 1.4-11.7 2-17.5 1.6z" opacity=".5"/>
    <g opacity=".5" transform="translate(0 -229.267)">
        <ellipse cx="33.9" cy="260.3" fill="gray" rx="27.1" ry="13.1"/>
        <ellipse cx="33.9" cy="259.3" fill="#ccc" rx="26.1" ry="12.2"/>
        <ellipse cx="33.8" cy="258.7" fill="#ececec" rx="24.7" ry="11.1"/>
    </g>
</svg>
