<svg
   xmlns="http://www.w3.org/2000/svg"
   width="256"
   height="256"
   viewBox="0 0 67.733331 67.733331">
   <g class="node-back" style="opacity:1;">
       <path
       id="path8249-6-5-1-5"
       d="M 58.403506,29.387943 A 24.651398,11.094061 0 0 1 33.752108,40.482013 24.651398,11.094061 0 0 1 9.1007099,29.387943 24.651398,11.094061 0 0 1 33.752108,18.293883 24.651398,11.094061 0 0 1 58.403506,29.387943 Z m 1.5881,0.59983 a 26.087971,12.196548 0 0 1 -26.08797,12.19655 26.087971,12.196548 0 0 1 -26.0879711,-12.19655 26.087971,12.196548 0 0 1 26.0879711,-12.19655 26.087971,12.196548 0 0 1 26.08797,12.19655 z m 1.00006,1.03186 A 27.127863,13.096208 0 0 1 33.863803,44.115843 27.127863,13.096208 0 0 1 6.7359399,31.019633 27.127863,13.096208 0 0 1 33.863803,17.923423 27.127863,13.096208 0 0 1 60.991666,31.019633 Z m -30.672094,16.81854 c -12.475358,-0.76967 -22.1255521,-5.2117 -23.2928651,-10.7218 -0.0993,-0.46873 -0.137403,-1.26695 -0.134935,-2.82655 l 0.0034,-2.17336 0.168352,0.51971 c 1.623468,5.01178 9.1380161,9.15203 19.1927621,10.57452 5.096272,0.721 10.865713,0.68947 15.875,-0.0868 8.96933,-1.38988 15.850463,-4.94629 18.098265,-9.35381 0.145777,-0.28585 0.360542,-0.81738 0.477255,-1.18118 0.198025,-0.61725 0.216884,-0.64297 0.282205,-0.38481 0.101407,0.40078 -0.03548,3.85061 -0.185994,4.68745 -0.695169,3.86502 -5.461982,7.28897 -13.002088,9.33926 -4.938215,1.34279 -11.696827,1.96422 -17.481399,1.60734 z"
    />
   </g>
  <g id="layer2">
    <path
       style="opacity:0.5;fill:#666666;"
       d="M 30.31953,47.838143 C 17.844172,47.068475 8.1939774,42.626452 7.0266644,37.116344 c -0.0993,-0.468723 -0.137403,-1.266946 -0.134935,-2.826547 l 0.0034,-2.173363 0.168352,0.519717 c 1.623468,5.011776 9.1380166,9.152023 19.1927626,10.574522 5.096272,0.720999 10.865713,0.689462 15.875,-0.08678 8.96933,-1.389884 15.850462,-4.946293 18.098265,-9.353817 0.145777,-0.285845 0.360542,-0.817374 0.477255,-1.181176 0.198025,-0.617254 0.216884,-0.642971 0.282205,-0.384815 0.101406,0.40078 -0.03548,3.850611 -0.185995,4.687453 -0.695168,3.865016 -5.461981,7.288968 -13.002087,9.339262 -4.938215,1.342793 -11.696827,1.964217 -17.481399,1.607338 z"
       id="path8558"
       />
  </g>
  <g
     id="layer3"
     style="display:inline" />
  <g
     id="layer1"
     transform="translate(0,-229.26667)"
     style="display:inline;opacity:0.5;">
    <ellipse
       style="opacity:1;fill:#808080;"
       id="path8249-6-7"
       cx="33.863758"
       cy="260.28629"
       rx="27.127861"
       ry="13.096208" />
    <ellipse
       style="opacity:1;fill:#cccccc;"
       id="path8249-6-5"
       ry="12.196548"
       rx="26.087971"
       cy="259.25443"
       cx="33.903595" />
    <ellipse
       style="display:inline;opacity:1;fill:#ececec;"
       id="path8249-6-5-1"
       ry="11.094061"
       rx="24.651398"
       cy="258.6546"
       cx="33.752064" />
  </g>
</svg>
